<mxfile host="app.diagrams.net" modified="2023-03-25T17:03:57.097Z" agent="Mozilla/5.0 (Macintosh; Intel Mac OS X 10_15_7) AppleWebKit/537.36 (KHTML, like Gecko) Chrome/111.0.0.0 Safari/537.36" etag="lA2Oh_ZYcosvfG_oyOn8" version="21.1.1" type="google">
  <diagram id="C5RBs43oDa-KdzZeNtuy" name="Page-1">
    <mxGraphModel grid="1" page="1" gridSize="10" guides="1" tooltips="1" connect="1" arrows="1" fold="1" pageScale="1" pageWidth="827" pageHeight="1169" math="0" shadow="0">
      <root>
        <mxCell id="WIyWlLk6GJQsqaUBKTNV-0" />
        <mxCell id="WIyWlLk6GJQsqaUBKTNV-1" parent="WIyWlLk6GJQsqaUBKTNV-0" />
        <mxCell id="WIyWlLk6GJQsqaUBKTNV-5" value="Нет" style="edgeStyle=orthogonalEdgeStyle;rounded=0;html=1;jettySize=auto;orthogonalLoop=1;fontSize=11;endArrow=block;endFill=0;endSize=8;strokeWidth=1;shadow=0;labelBackgroundColor=none;exitX=0;exitY=0.5;exitDx=0;exitDy=0;" edge="1" parent="WIyWlLk6GJQsqaUBKTNV-1" source="WIyWlLk6GJQsqaUBKTNV-6" target="WIyWlLk6GJQsqaUBKTNV-7">
          <mxGeometry x="-0.6192" y="-10" relative="1" as="geometry">
            <mxPoint as="offset" />
            <Array as="points">
              <mxPoint x="50" y="350" />
            </Array>
          </mxGeometry>
        </mxCell>
        <mxCell id="WIyWlLk6GJQsqaUBKTNV-6" value="array1[i].length() &amp;lt;= 3" style="rhombus;whiteSpace=wrap;html=1;shadow=0;fontFamily=Helvetica;fontSize=12;align=center;strokeWidth=1;spacing=6;spacingTop=-4;" vertex="1" parent="WIyWlLk6GJQsqaUBKTNV-1">
          <mxGeometry x="165.87" y="310" width="167.5" height="80" as="geometry" />
        </mxCell>
        <mxCell id="e36AYRWKWxncW3qoGip3-7" style="edgeStyle=orthogonalEdgeStyle;rounded=0;orthogonalLoop=1;jettySize=auto;html=1;exitX=0.5;exitY=1;exitDx=0;exitDy=0;" edge="1" parent="WIyWlLk6GJQsqaUBKTNV-1" source="WIyWlLk6GJQsqaUBKTNV-7">
          <mxGeometry relative="1" as="geometry">
            <mxPoint x="250" y="180" as="targetPoint" />
            <Array as="points">
              <mxPoint x="50" y="430" />
              <mxPoint x="-40" y="430" />
              <mxPoint x="-40" y="180" />
            </Array>
          </mxGeometry>
        </mxCell>
        <mxCell id="WIyWlLk6GJQsqaUBKTNV-7" value="i++" style="rounded=0;whiteSpace=wrap;html=1;fontSize=12;glass=0;strokeWidth=1;shadow=0;" vertex="1" parent="WIyWlLk6GJQsqaUBKTNV-1">
          <mxGeometry x="-10" y="370" width="120" height="40" as="geometry" />
        </mxCell>
        <mxCell id="e36AYRWKWxncW3qoGip3-5" value="" style="edgeStyle=orthogonalEdgeStyle;rounded=0;orthogonalLoop=1;jettySize=auto;html=1;" edge="1" parent="WIyWlLk6GJQsqaUBKTNV-1" source="e36AYRWKWxncW3qoGip3-2" target="e36AYRWKWxncW3qoGip3-4">
          <mxGeometry relative="1" as="geometry" />
        </mxCell>
        <mxCell id="e36AYRWKWxncW3qoGip3-2" value="Начало" style="strokeWidth=1;html=1;shape=mxgraph.flowchart.terminator;whiteSpace=wrap;" vertex="1" parent="WIyWlLk6GJQsqaUBKTNV-1">
          <mxGeometry x="182.12" y="29" width="135" height="40" as="geometry" />
        </mxCell>
        <mxCell id="e36AYRWKWxncW3qoGip3-3" value="Конец" style="strokeWidth=1;html=1;shape=mxgraph.flowchart.terminator;whiteSpace=wrap;" vertex="1" parent="WIyWlLk6GJQsqaUBKTNV-1">
          <mxGeometry x="370" y="400" width="115" height="40" as="geometry" />
        </mxCell>
        <mxCell id="e36AYRWKWxncW3qoGip3-6" style="edgeStyle=orthogonalEdgeStyle;rounded=0;orthogonalLoop=1;jettySize=auto;html=1;exitX=0.5;exitY=1;exitDx=0;exitDy=0;" edge="1" parent="WIyWlLk6GJQsqaUBKTNV-1" source="e36AYRWKWxncW3qoGip3-4" target="e36AYRWKWxncW3qoGip3-9">
          <mxGeometry relative="1" as="geometry" />
        </mxCell>
        <mxCell id="e36AYRWKWxncW3qoGip3-4" value="Задаем i = 0, index = 0&lt;br&gt;начальный&amp;nbsp;и итоговый массивы строк:&lt;br&gt;array1 и пустой resultArray1" style="shape=parallelogram;perimeter=parallelogramPerimeter;whiteSpace=wrap;html=1;fixedSize=1;" vertex="1" parent="WIyWlLk6GJQsqaUBKTNV-1">
          <mxGeometry x="116.99" y="99" width="265.25" height="60" as="geometry" />
        </mxCell>
        <mxCell id="e36AYRWKWxncW3qoGip3-9" value="i &amp;lt; array.length" style="rhombus;whiteSpace=wrap;html=1;shadow=0;fontFamily=Helvetica;fontSize=12;align=center;strokeWidth=1;spacing=6;spacingTop=-4;" vertex="1" parent="WIyWlLk6GJQsqaUBKTNV-1">
          <mxGeometry x="165.88" y="200" width="167.5" height="80" as="geometry" />
        </mxCell>
        <mxCell id="e36AYRWKWxncW3qoGip3-13" style="edgeStyle=orthogonalEdgeStyle;rounded=0;orthogonalLoop=1;jettySize=auto;html=1;exitX=0.5;exitY=1;exitDx=0;exitDy=0;exitPerimeter=0;" edge="1" parent="WIyWlLk6GJQsqaUBKTNV-1" source="e36AYRWKWxncW3qoGip3-3" target="e36AYRWKWxncW3qoGip3-3">
          <mxGeometry relative="1" as="geometry" />
        </mxCell>
        <mxCell id="e36AYRWKWxncW3qoGip3-14" value="Нет" style="edgeStyle=orthogonalEdgeStyle;rounded=0;html=1;jettySize=auto;orthogonalLoop=1;fontSize=11;endArrow=block;endFill=0;endSize=8;strokeWidth=1;shadow=0;labelBackgroundColor=none;exitX=1;exitY=0.5;exitDx=0;exitDy=0;entryX=0.5;entryY=0;entryDx=0;entryDy=0;" edge="1" parent="WIyWlLk6GJQsqaUBKTNV-1" source="e36AYRWKWxncW3qoGip3-9" target="d2rQw1DsbJfj9Ui0AvuW-0">
          <mxGeometry x="-0.6192" y="-10" relative="1" as="geometry">
            <mxPoint as="offset" />
            <mxPoint x="496" y="380" as="sourcePoint" />
            <mxPoint x="380" y="400" as="targetPoint" />
            <Array as="points">
              <mxPoint x="428" y="240" />
              <mxPoint x="428" y="320" />
            </Array>
          </mxGeometry>
        </mxCell>
        <mxCell id="e36AYRWKWxncW3qoGip3-15" value="Да" style="edgeStyle=orthogonalEdgeStyle;rounded=0;html=1;jettySize=auto;orthogonalLoop=1;fontSize=11;endArrow=block;endFill=0;endSize=8;strokeWidth=1;shadow=0;labelBackgroundColor=none;exitX=0.5;exitY=1;exitDx=0;exitDy=0;entryX=0.5;entryY=0;entryDx=0;entryDy=0;" edge="1" parent="WIyWlLk6GJQsqaUBKTNV-1" source="e36AYRWKWxncW3qoGip3-9" target="WIyWlLk6GJQsqaUBKTNV-6">
          <mxGeometry x="-0.3331" y="-10" relative="1" as="geometry">
            <mxPoint as="offset" />
            <mxPoint x="343" y="250" as="sourcePoint" />
            <mxPoint x="438" y="280" as="targetPoint" />
            <Array as="points">
              <mxPoint x="250" y="280" />
              <mxPoint x="250" y="280" />
            </Array>
          </mxGeometry>
        </mxCell>
        <mxCell id="e36AYRWKWxncW3qoGip3-23" style="edgeStyle=orthogonalEdgeStyle;rounded=0;orthogonalLoop=1;jettySize=auto;html=1;entryX=0.5;entryY=0;entryDx=0;entryDy=0;" edge="1" parent="WIyWlLk6GJQsqaUBKTNV-1" source="e36AYRWKWxncW3qoGip3-16" target="e36AYRWKWxncW3qoGip3-22">
          <mxGeometry relative="1" as="geometry" />
        </mxCell>
        <mxCell id="e36AYRWKWxncW3qoGip3-16" value="resultArray1[index] = array1[i]" style="whiteSpace=wrap;html=1;shadow=0;strokeWidth=1;spacing=6;spacingTop=-4;" vertex="1" parent="WIyWlLk6GJQsqaUBKTNV-1">
          <mxGeometry x="161.83" y="450" width="175.57" height="30" as="geometry" />
        </mxCell>
        <mxCell id="e36AYRWKWxncW3qoGip3-21" value="Да" style="edgeStyle=orthogonalEdgeStyle;rounded=0;html=1;jettySize=auto;orthogonalLoop=1;fontSize=11;endArrow=block;endFill=0;endSize=8;strokeWidth=1;shadow=0;labelBackgroundColor=none;exitX=0.5;exitY=1;exitDx=0;exitDy=0;entryX=0.5;entryY=0;entryDx=0;entryDy=0;" edge="1" parent="WIyWlLk6GJQsqaUBKTNV-1" source="WIyWlLk6GJQsqaUBKTNV-6" target="e36AYRWKWxncW3qoGip3-16">
          <mxGeometry x="-0.2003" y="-10" relative="1" as="geometry">
            <mxPoint as="offset" />
            <mxPoint x="380" y="420" as="sourcePoint" />
            <mxPoint x="330" y="440" as="targetPoint" />
            <Array as="points">
              <mxPoint x="250" y="440" />
              <mxPoint x="250" y="440" />
            </Array>
          </mxGeometry>
        </mxCell>
        <mxCell id="e36AYRWKWxncW3qoGip3-25" value="" style="edgeStyle=orthogonalEdgeStyle;rounded=0;orthogonalLoop=1;jettySize=auto;html=1;" edge="1" parent="WIyWlLk6GJQsqaUBKTNV-1" source="e36AYRWKWxncW3qoGip3-22" target="e36AYRWKWxncW3qoGip3-24">
          <mxGeometry relative="1" as="geometry" />
        </mxCell>
        <mxCell id="e36AYRWKWxncW3qoGip3-22" value="index++" style="rounded=0;whiteSpace=wrap;html=1;fontSize=12;glass=0;strokeWidth=1;shadow=0;" vertex="1" parent="WIyWlLk6GJQsqaUBKTNV-1">
          <mxGeometry x="189.62" y="510" width="120" height="30" as="geometry" />
        </mxCell>
        <mxCell id="e36AYRWKWxncW3qoGip3-26" style="edgeStyle=orthogonalEdgeStyle;rounded=0;orthogonalLoop=1;jettySize=auto;html=1;exitX=0.5;exitY=1;exitDx=0;exitDy=0;" edge="1" parent="WIyWlLk6GJQsqaUBKTNV-1" source="e36AYRWKWxncW3qoGip3-24">
          <mxGeometry relative="1" as="geometry">
            <mxPoint x="250" y="170" as="targetPoint" />
            <Array as="points">
              <mxPoint x="250" y="620" />
              <mxPoint x="-80" y="620" />
              <mxPoint x="-80" y="170" />
            </Array>
          </mxGeometry>
        </mxCell>
        <mxCell id="e36AYRWKWxncW3qoGip3-24" value="i++" style="rounded=0;whiteSpace=wrap;html=1;fontSize=12;glass=0;strokeWidth=1;shadow=0;" vertex="1" parent="WIyWlLk6GJQsqaUBKTNV-1">
          <mxGeometry x="189.61" y="565" width="120" height="35" as="geometry" />
        </mxCell>
        <mxCell id="d2rQw1DsbJfj9Ui0AvuW-1" style="edgeStyle=orthogonalEdgeStyle;rounded=0;orthogonalLoop=1;jettySize=auto;html=1;entryX=0.5;entryY=0;entryDx=0;entryDy=0;entryPerimeter=0;" edge="1" parent="WIyWlLk6GJQsqaUBKTNV-1" source="d2rQw1DsbJfj9Ui0AvuW-0" target="e36AYRWKWxncW3qoGip3-3">
          <mxGeometry relative="1" as="geometry">
            <mxPoint x="427.5" y="390" as="targetPoint" />
          </mxGeometry>
        </mxCell>
        <mxCell id="d2rQw1DsbJfj9Ui0AvuW-0" value="Вывод &lt;br&gt;resultArray1" style="shape=parallelogram;perimeter=parallelogramPerimeter;whiteSpace=wrap;html=1;fixedSize=1;" vertex="1" parent="WIyWlLk6GJQsqaUBKTNV-1">
          <mxGeometry x="367.5" y="320" width="120" height="50" as="geometry" />
        </mxCell>
      </root>
    </mxGraphModel>
  </diagram>
</mxfile>
